<?xml version="1.0" standalone="no"?><!DOCTYPE svg PUBLIC "-//W3C//DTD SVG 1.1//EN" "http://www.w3.org/Graphics/SVG/1.1/DTD/svg11.dtd"><svg t="1616839921139" class="icon" viewBox="0 0 1024 1024" version="1.1" xmlns="http://www.w3.org/2000/svg" p-id="4809" xmlns:xlink="http://www.w3.org/1999/xlink" width="64" height="64"><defs><style type="text/css"></style></defs><path d="M135.168 199.82336l0 549.240832c0 0 76.496896-53.58592 183.668736-53.58592 106.428416 0 182.923264 53.58592 182.923264 53.58592L501.76 207.271936c0 0-76.496896-62.521344-182.923264-62.521344C211.664896 144.750592 135.168 199.82336 135.168 199.82336L135.168 199.82336zM528.384 199.82336l0 549.240832c0 0 76.12416-53.58592 183.296-53.58592s183.296 53.58592 183.296 53.58592L894.976 207.271936c0 0-76.12416-62.521344-183.296-62.521344S528.384 199.82336 528.384 199.82336L528.384 199.82336zM81.92 264.192l24.576 0 0 524.288 344.064 0 0 26.624 131.072 0 0-26.624 342.016 0L923.648 264.192l24.576 0 0 550.912L617.668608 815.104l1.486848 26.624L421.888 841.728l0-26.624L81.92 815.104 81.92 264.192z" p-id="4810" fill="#BFCBD9"></path></svg>