<?xml version="1.0" standalone="no"?><!DOCTYPE svg PUBLIC "-//W3C//DTD SVG 1.1//EN" "http://www.w3.org/Graphics/SVG/1.1/DTD/svg11.dtd"><svg t="1616839633155" class="icon" viewBox="0 0 1024 1024" version="1.1" xmlns="http://www.w3.org/2000/svg" p-id="2502" xmlns:xlink="http://www.w3.org/1999/xlink" width="128" height="128"><defs><style type="text/css"></style></defs><path d="M198.45514 987.279181a141.233918 36.720819 0 1 0 282.467837 0 141.233918 36.720819 0 1 0-282.467837 0Z" fill="#BFCBD9" p-id="2503"></path><path d="M339.689059 987.279181a33.89614 33.89614 0 0 1-26.834445-12.711052l-2.118509-2.118509c-2.118509-1.412339-2.118509-3.530848-3.530848-7.767866l-39.545497-125.698187L48.041017 147.643537c0-2.118509-2.118509-2.118509-2.118508-3.530848L19.088064 61.490847c0-2.118509-2.118509-5.649357 0-7.767865 0-14.829561 12.711053-24.715936 28.952953-26.834445a33.89614 33.89614 0 0 1 34.60231 20.478918l14.829562 47.313363C177.270053 55.84149 280.370813 26.888537 350.281603 26.888537a529.627193 529.627193 0 0 1 120.755 14.123392 879.887311 879.887311 0 0 1 112.987134 33.189971 386.980936 386.980936 0 0 0 125.698188 20.478918 387.687106 387.687106 0 0 0 240.097661-86.15269 38.133158 38.133158 0 0 1 36.720818-6.355527 26.834444 26.834444 0 0 1 19.066579 28.952954l-31.071462 401.810497a23.303597 23.303597 0 0 1-8.474035 16.241901c-4.237018 4.237018-117.224152 110.868626-303.652924 110.868626-20.478918 0-41.664006-2.118509-64.261433-3.530848a482.313831 482.313831 0 0 0-55.081228-4.237018 387.687106 387.687106 0 0 0-156.06348 32.483801c-49.431871 22.597427-84.034181 53.668889-102.39459 92.508217l45.194853 143.352427 40.957837 127.816696a26.128275 26.128275 0 0 1-18.36041 32.483801 18.360409 18.360409 0 0 1-12.711052 6.355526z" fill="#BFCBD9" p-id="2504"></path></svg>