<?xml version="1.0" standalone="no"?><!DOCTYPE svg PUBLIC "-//W3C//DTD SVG 1.1//EN" "http://www.w3.org/Graphics/SVG/1.1/DTD/svg11.dtd"><svg t="1614147648437" class="icon" viewBox="0 0 1024 1024" version="1.1" xmlns="http://www.w3.org/2000/svg" p-id="3802" xmlns:xlink="http://www.w3.org/1999/xlink" width="64" height="64"><defs><style type="text/css"></style></defs><path d="M1.13410958 480.21241629l481.46511189 0L482.59922147-1.25153053 1.13410958-1.25153053 1.13410958 480.21241629zM121.50126137 119.11445618l240.7319734 0 0 240.7319734L121.50126137 359.84642958 121.50126137 119.11445618zM542.78279737-1.25153053l0 481.4651119 481.46511189 0L1024.24790813-1.25153053 542.78279737-1.25153053zM903.88075747 359.84642958L663.14878407 359.84642958 663.14878407 119.11445618l240.7319734 0L903.88075747 359.84642958zM181.68367218 299.66401877l120.3659867 0L302.04965888 179.29686699 181.68367218 179.29686699 181.68367218 299.66401877zM1.13410958 1021.86110407l481.46511189 0L482.59922147 540.39599218 1.13410958 540.39599218 1.13410958 1021.86110407zM121.50126137 660.76197888l240.7319734 0 0 240.73197341L121.50126137 901.49395229 121.50126137 660.76197888zM843.69834553 179.29686699L723.33119488 179.29686699l0 120.3659867 120.3659867 0L843.69718158 179.29686699zM542.78279737 1021.86110407l120.3659867 0L663.14878407 901.49511623 542.78279737 901.49511623 542.78279737 1021.86110407zM663.14878407 660.76197888l0 240.73197341 120.3659867 0L783.51477077 660.76197888 663.14878407 660.76197888zM903.88075747 901.49511623L783.51477077 901.49511623 783.51477077 1021.86110407l240.73197341 0L1024.24674418 781.12796558 903.88075747 781.12796558 903.88075747 901.49511623zM903.88075747 660.76197888l120.36598671 0L1024.24674418 540.39599218 903.88075747 540.39599218 903.88075747 660.76197888zM542.78279737 540.39599218l0 120.3659867 120.3659867 0L663.14878407 540.39599218 542.78279737 540.39599218zM181.68367218 841.31154147l120.3659867 0L302.04965888 720.94555477 181.68367218 720.94555477 181.68367218 841.31154147z" fill="#5A5A64" p-id="3803"></path></svg>