<?xml version="1.0" standalone="no"?><!DOCTYPE svg PUBLIC "-//W3C//DTD SVG 1.1//EN" "http://www.w3.org/Graphics/SVG/1.1/DTD/svg11.dtd"><svg t="1616839729527" class="icon" viewBox="0 0 1024 1024" version="1.1" xmlns="http://www.w3.org/2000/svg" p-id="3147" width="64" height="64" xmlns:xlink="http://www.w3.org/1999/xlink"><defs><style type="text/css"></style></defs><path d="M191.614 1005.632c-22.37 0-40.37-17.983-40.37-40.277 0-21.988 18.001-40.01 40.37-40.01l93.427 0 0-44.299c0-11.129 3.983-20.571 10.841-28.022l1.723-2.276c8.004-7.699 18.231-12.583 30.297-12.583l142.61 0 0-658.942c-13.443 3.139-26.278 6.837-38.843 12.275-11.796 5.115-23.214 11.396-34.282 18.562-10.61 7.737-21.184 16.297-30.032 25.741-22.907 22.29-50.295 40.545-80.633 53.147-15.091 6.281-30.795 11.702-47.996 15.415-6.321 1.168-12.832 1.994-18.885 3.143l103.422 316.074c5.515 1.991 10.956 5.113 15.477 9.98 15.397 15.474 15.397 41.158 0 56.306-19.46 19.727-43.363 36.007-69.717 47.155l0 0c-25.663 9.974-53.204 16.012-81.742 16.012-29.152 0-57.152-6.037-82.279-16.012l-2.337-1.132c-25.665-11.147-48.532-26.297-67.415-46.023-15.668-15.15-15.668-40.833 0-56.306 4.557-4.867 9.73-7.988 15.438-9.98l103.999-316.631c-5.399-0.861-10.269-1.415-15.438-2.585-17.124-3.713-33.134-9.135-47.958-15.415-15.475-5.729-30.031-13.732-42.902-22.601-13.71-8.869-26.275-19.421-37.691-30.546-9.115-10.001-9.115-25.741 0-34.323 9.423-9.98 25.127-9.98 34.285 0 9.153 8.582 19.456 17.429 30.031 24.879 11.146 7.145 22.484 13.714 34.553 18.847 12.293 4.863 25.166 8.886 38.572 11.722 12.909 2.566 26.585 4.005 40.909 4.005 13.945 0 27.734-1.438 40.529-4.005 13.098-2.835 26.354-6.858 38.917-11.722 23.939-9.997 45.965-25.435 64.58-43.725l0.537-0.556c11.414-11.414 23.406-21.698 37.156-30.567 12.563-8.867 27.427-16.318 42.289-22.598 15.401-6.838 31.412-11.99 47.959-14.864l9.5-2.281 0-76.285c0-22.292 18.538-40.604 40.794-40.604 22.027 0 40.107 18.311 40.107 40.604l0 76.285 9.652 2.281c16.547 2.874 32.868 8.026 48.035 14.864 15.398 6.283 29.725 13.732 42.903 22.598 13.102 8.869 25.894 19.422 37.078 31.123 9.502 8.582 19.461 17.429 30.339 24.879 11.414 7.145 22.831 13.714 34.588 18.847 12.222 4.863 25.169 8.886 38.499 11.722 13.254 2.566 26.354 4.005 40.642 4.005 14.287 0 28.002-1.438 40.565-4.005 13.709-2.835 26.275-6.858 38.838-11.722 24.057-9.997 46.045-25.435 64.583-43.725 9.424-9.98 25.202-9.98 34.322 0 9.118 8.582 9.118 24.322 0 34.323-22.83 22.29-49.719 40.545-80.288 53.147-15.167 6.281-31.18 11.702-47.995 15.415-4.903 1.168-10.075 1.723-15.743 2.585l104.265 316.631c5.441 1.991 10.575 5.113 15.207 9.98 16.013 15.474 16.013 41.158 0 56.306-19.42 19.727-43.13 36.007-69.754 47.155-25.129 9.974-53.165 16.012-82.047 16.012-28.805 0-56.233-6.037-81.708-16.012l-2.031-1.132c-25.969-11.147-48.57-26.297-67.683-46.023-15.668-15.15-15.668-40.833 0-56.306 4.331-4.867 9.997-7.988 15.132-9.98l104.035-316.074c-6.894-1.149-13.097-1.975-19.456-3.143-16.815-3.713-33.097-9.135-47.958-15.415-15.436-5.729-29.991-13.732-42.903-22.601-13.175-8.869-26.275-19.421-37.078-30.546-9.808-9.444-19.765-18.004-30.953-25.741-10.801-7.165-22.291-13.446-34.321-18.562-11.91-5.439-25.127-9.136-38.764-12.275l0 0 0 658.942 142.878 0c11.684 0 22.789 4.883 30.187 12.583 8.121 7.449 12.598 18.596 12.598 30.298l0 44.299 93.811 0c22.214 0 39.987 18.022 39.987 40.01 0 22.293-17.774 40.277-39.987 40.277l-639.276 0zM925.424 637.579l0 0-90.322-275.182-89.941 275.182c11.34 10.286 23.901 18.293 37.081 24.573l1.763 0.289c15.668 6.567 33.131 9.997 51.099 9.997 18.617 0 35.775-3.429 51.177-9.997l0.611 0c13.674-6.013 27.347-14.019 38.533-24.862l0 0zM276.995 637.579l0 0-89.708-275.182-90.323 275.182c10.877 10.286 23.44 18.293 37.23 24.573l1.689 0.289c15.36 6.567 32.825 9.997 51.405 9.997 17.695 0 35.392-3.429 50.639-9.997l0.267 0c13.981-6.013 27.389-14.019 38.803-24.862l0 0zM333.075 925.344l0 0 356.006 0 0-38.61c-165.707 0-184.592 0-356.006 0l0 38.61z" p-id="3148" fill="#BFCBD9"></path></svg>