<?xml version="1.0" standalone="no"?><!DOCTYPE svg PUBLIC "-//W3C//DTD SVG 1.1//EN" "http://www.w3.org/Graphics/SVG/1.1/DTD/svg11.dtd"><svg t="1616839991976" class="icon" viewBox="0 0 1024 1024" version="1.1" xmlns="http://www.w3.org/2000/svg" p-id="5410" xmlns:xlink="http://www.w3.org/1999/xlink" width="64" height="64"><defs><style type="text/css"></style></defs><path d="M491.102041 323.918367a156.734694 156.734694 0 1 0 0 313.469388 156.734694 156.734694 0 0 0 0-313.469388z m0 62.693878a94.040816 94.040816 0 1 1 0 188.081633 94.040816 94.040816 0 0 1 0-188.081633z" fill="#BFCBD9" p-id="5411"></path><path d="M501.509224 54.083918L194.727184 164.090776A73.142857 73.142857 0 0 0 146.285714 232.949551v480.590367a73.142857 73.142857 0 0 0 8.29649 33.854694c49.96702 95.691755 165.511837 175.960816 345.610449 243.273143a31.346939 31.346939 0 0 0 21.671184 0.10449c185.991837-67.542204 302.602449-148.187429 348.745143-244.94498a73.142857 73.142857 0 0 0 7.105306-31.472326V232.928653a73.142857 73.142857 0 0 0-48.44147-68.837877L522.657959 54.083918a31.346939 31.346939 0 0 0-21.148735 0zM215.875918 223.106612l296.165878-106.224326 296.04049 106.224326a10.44898 10.44898 0 0 1 6.917224 9.822041v481.426286a10.44898 10.44898 0 0 1-1.024 4.493061l-2.424163 4.890122c-37.699918 73.372735-134.018612 140.956735-289.959184 200.244245l-10.302694 3.866123-10.595265-4.096c-154.456816-60.499592-251.026286-129.692735-290.544326-205.385143a10.44898 10.44898 0 0 1-1.191184-4.827429V232.949551a10.44898 10.44898 0 0 1 6.917224-9.842939z" fill="#BFCBD9" p-id="5412"></path><path d="M552.542041 562.99102a31.346939 31.346939 0 0 1 41.942204-2.173387l2.382367 2.152489 88.649143 88.670041a31.346939 31.346939 0 0 1-41.942204 46.477061l-2.382367-2.152489-88.670041-88.649143a31.346939 31.346939 0 0 1 0-44.34547z" fill="#BFCBD9" p-id="5413"></path></svg>